# xmcd CD database file
#
# Track frame offsets:
#	150
#	28848
#	65473
#	101614
#	131570
#	160214
#	184694
#	209278
#	236367
#
# Disc length: 3294 seconds
#
# Revision: 0
# Processed by: cddbd v1.5.2PL0 Copyright (c) Steve Scherf et al.
# Submitted via: CDex 1.79
#
DISCID=760cdc09
DTITLE=David Lanz - Cristofori's Dream ...Revisited
DYEAR=2013
DGENRE=New Age
TTITLE0=Cristofori's Dream
TTITLE1=Spiral Dance
TTITLE2=Green into Gold
TTITLE3=Wings to Altair
TTITLE4=Summer's Child
TTITLE5=Free Fall
TTITLE6=A Whiter Shade of Pale
TTITLE7=Cristofori's Dream (Live Orchestral)
TTITLE8=Seoul Improvisations
EXTD=YEAR: 2013
EXTT0=
EXTT1=
EXTT2=
EXTT3=
EXTT4=
EXTT5=
EXTT6=
EXTT7=
EXTT8=
PLAYORDER=
